<?xml version="1.0" encoding="utf-8"?>
<!-- Generator: Adobe Illustrator 18.0.0, SVG Export Plug-In . SVG Version: 6.00 Build 0)  -->
<!DOCTYPE svg PUBLIC "-//W3C//DTD SVG 1.1//EN" "http://www.w3.org/Graphics/SVG/1.1/DTD/svg11.dtd">
<svg version="1.1" id="Laag_1_xA0_Afbeelding_1_" xmlns="http://www.w3.org/2000/svg" xmlns:xlink="http://www.w3.org/1999/xlink"
	 x="0px" y="0px" viewBox="0 0 671 662" enable-background="new 0 0 671 662" xml:space="preserve">
<g>
	<g>
		<path fill="#C7C7C7" d="M596,662c-5,0-10,0-15,0c-4.9-9.3-12.2-16.7-19-24.6c-4.1-4.7-7.6-6.7-13.5-6.5c-5,0.2-6.8-2.5-4.8-7.2
			c4.1-9.9,6.7-20.2,11.6-29.8c0.2-0.4,0.5-0.9,0.7-1.3c3.5-7.3,3.5-7.3-3.9-9.9c-4.8-1.6-8.1-5.1-11.1-9
			c-10.7-14.4-21.7-28.7-32.4-43.1c-5.1-6.8-9.9-13.7-14.6-20.8c-2.2-3.3-5-6.1-7.9-8.9c-10.3-10.2-20.4-20.5-30.3-31.2
			c-1.8-2-3.5-4.1-5.4-5.9c-14.8-13.9-29-28.4-43.5-42.6c-11.4-11.2-22.3-22.8-33.1-34.6c-3.4-3.7-7.3-6.7-10.8-10.4
			c-2.2-2.4-5.5-2.3-8.4-2.5c-11.4-0.9-23-3.1-33.4,3.9c-5.4,3.6-11.3,6.3-17.3,9c-1.1,0.5-2.1,1-3.2,1.3c-3.7,1-5.5,0-5.8-3.7
			c-0.2-2.2-0.8-3.7-2.8-4.8c-1.8-1-3-2.6-3.4-4.7c-1.8-10.2-8.7-17.3-15.3-24.5c-1.2-1.3-2.8-1.7-4.5-1.9c-3.7-0.4-5.6-2.6-6.5-6
			c-0.3-1.3-0.7-2.6-1-3.9c-0.5-2.1-0.4-4.8-1.9-6.1c-2-1.7-3.7,1.1-5.7,1.7c-3.6,1-5.8-0.2-7.2-3.5c-0.9-2.3-1.3-4.8-2-7.2
			c-1.6-5.5-3.6-10.4-10-12.5c-4.7-1.6-6.6-6.3-8.1-10.8c-2-5.9-8.7-9.9-14.7-8.4c-4,1.1-7.5,1.4-10.5-2c-0.7-0.8-1.7-1-2.7-0.9
			c-6.3,0.8-12.5,1.9-18.1,5.4c-1.2,0.7-2.2,1.6-2.6,2.9c-2.4,9-10,12.3-17.5,14.9c-5.6,2-9.6,4.1-9.7,10.7c0,2.4-2.2,4-3.8,5.7
			c-4.5,5.2-9.3,10.1-10.4,17.6c-0.7,5-3,9.9-5,14.6c-2.8,6.5-4.9,13.1-4.3,20.3c0.3,3.8-1.1,7.2-4.1,9.8c-3.1,2.6-3.7,6.6-5,10.2
			c-5.1,13.6-6.6,11.4-16.1,7.9c-6.6-2.4-13.1-4.8-19.8-6.9c-4.3-1.3-7.6-3.9-10.1-7.7c-4.3-6.7-10.9-9.5-18.6-9.8
			c-7.5-0.2-15-0.1-22.5,0c-5.7,0.1-10.3-1.7-14.2-6C11.4,372.6,6,367.4,2,361c0-12.3,0-24.7,0-37c2.6-9.8,6.4-19,11.8-27.8
			c2.6-4.2,5-7.5,9.2-10.3c5.4-3.5,8.3-9.6,10.1-15.7c1.2-4-2.3-7-4.4-9.5c-3.7-4.5-4.9-8.6-2.7-14.1c1.2-2.9,2.8-4.9,5.5-6
			c2.7-1.1,3.9-3.1,4-5.8c0.3-8,3.5-14.4,9.9-19.1c1.3-1,2.2-2,1.6-3.7c-1.5-4.1-0.3-8.2-0.1-12.4c0.2-4.9,2.8-8.1,7.5-9.5
			c1.6-0.5,3.4-0.8,4.3-2.3c3.2-5.1,6.4-10,12.7-13.1c-8-1.9-7.1-7.1-6.4-12.5c0.7-5.6,1.5-11.2,2-16.9c0.2-2.3-0.5-3.8-2.5-5
			c-3-1.8-6-3.5-9.4-4.6c-3.7-1.2-7.2-1.1-10.3,1.6c-1.1,1-2.4,1.8-3.8,2.3c-4.2,1.6-7-0.4-6.8-4.9c0.2-5.6,3-9.3,8.7-10.7
			c-6.3,0.3-7.5-1.1-7.1-8.1c-5.3,2.3-10.9,0.9-16.3,3.3c-5.3,2.4-13-1.3-16-6.4c-2.3-3.7-1.2-7.2,2.8-9.3c-2.9-1.8-3.8-3.4-3.3-5.9
			c0.6-2.7,2.6-3.2,4.9-3.3c1.1-0.1,2.6,0.5,2.8-1.2c0.1-1.2-0.6-2.2-1.5-3c-2.1-1.9-5.3-2-7.2-4.3c0-2.7,0-5.3,0-8
			c1.1-2.6,1.1-6.1,5-6.7c1.9-0.3,0.9-1.7,0.7-2.8c-0.5-2.9,1.3-4,3.4-3.1c6.7,2.8,13.1,0.4,18.8-2.1c12.9-5.5,24.7-4.8,36.3,3.3
			c4.6,3.2,10.2,5,14.2,9.2c1.9,2.1,4.3,2.1,6.3,0.3c11-9.7,25.7-11.5,38-18.3c2.2-1.2,4.7-2.1,7.2-1.5c6.2,1.5,12,0.1,17.6-2.1
			c13.6-5.4,28.2-6.4,42.4-9.3c3.1-0.6,6.2-1.3,9.4-1.1c7.6,0.5,14.9-0.4,21.8-3.9c3.1-1.6,6.6-2.2,10.2-2.1c1.2,0,2.4,0,3.5-0.4
			c11.2-4.3,23.1-6.5,33.7-12.3c3.8-2.1,8.1-3.1,12-4.8c5.7-2.4,11.3-4.9,16.7-7.9c6.8-3.9,14.7-4.1,22.1-5.9
			c17.1-4.1,34.5-5.3,52-3.2c5.2,0.6,10.1,2.1,14.4,5.2c3,2.2,5.6,2.2,7.8-0.7c4.1-5.5,9.5-5.2,15.3-3.8c7.5,1.8,9.3,7.5,6.5,14.8
			c-0.6,1.6-2,2.2-3.7,1.6c-1.4-0.5-2.7-1.1-3.8-1.2c4.3,1.2,4.3,1.2,7.7,5.1c-1.8-4.5,0.7-8.9,2.1-13.2c0.8-2.5,3.6-1.7,5.7-0.8
			c5.8,2.5,11.2,5.8,16.2,9.8c11.2,9,11.4,8.9,6.6,22.5c-1.9,5.5-2.2,11-2,16.7c0.1,2.1,0.8,3.8,2,5.5c5.5,7.6,9.6,15.6,8,25.4
			c-0.5,3.5,1.4,6.8,2.3,10.2c1.3,5.2,1.4,10.5,2.5,15.8c0.8,4,2.3,7.1,6.3,8.9c4.1,1.9,7.2,5.4,10.5,8.4c4.6,4,10.9,6,14.1,11.7
			c0.5,0.8,1.7,1.1,2.6,1.3c7.7,1.7,15,4.4,22.2,7.4c2.4,1,4.9,0.8,7.4,1c2.5,0.2,5.6,0.2,5.5,3.6c-0.1,3.5-3.3,2.9-5.1,3.1
			c1.2,0.4,3,0.1,4.5-0.9c3-2.2,5-0.9,5.6,2c1.1,5.7,5.5,6.1,9.8,6.5c2.3,0.2,4.8-0.1,6.9,0.9c4.9,2.5,9.9,2.2,15.1,1.8
			c2.6-0.2,4.8-0.8,6.9-2.4c3.2-2.4,6.7-4.4,10.6-5.6c2.3-0.7,4.8-0.9,6.2,1.5c1.3,2.2,0,4.2-1.3,5.9c-0.8,1.1-1.7,2.2-2.8,2.8
			c-4.4,2.6-5.7,6.6-4.8,11.1c1.2,6-0.6,11.6-1.4,17.3c-1.2,8.6,6.4,18.6,15.3,19.1c7.9,0.5,15.5,1.4,22.4,5.7c1,0.6,2.2,1.2,3.3,1
			c8.6-1.2,15.7,3.8,23.4,6.1c1.6,0.5,3.2,1,4.8,1.4c2.8,0.8,4.9,0.6,6.8-2.2c2.6-3.8,6.2-3.2,7,1.3c3,15.1,7.3,30.1,6.2,45.9
			c-0.1,1.9-0.4,3.8-1.7,5.1c-2.6,2.6-2,4.5,0.9,6.3c1.6,1.1,1.8,3.1,2.9,4.6c0,1.7,0,3.3,0,5c-1.4,1.5-2.9,2.7-4.8,3.4
			c-7.7,2.8-14.1,11.7-14,20.3c0.1,6.9,0,13.4-4.3,19.5c-2.8,3.9,0.8,14.5,4.9,17.4c1.4,1,2.8,1.8,4.2,2.7c3.4,2.1,4.9,5,5.1,9.1
			c0.2,5.7-0.6,11.3-1,16.9c-1,13,1.3,25.8,3.1,38.6c2.2,15.4,5.1,30.8,5.8,46.4c0.1,1.7,0.1,3.3,1,4.8c0,1.3,0,2.7,0,4
			c-4.4,13.8-7.5,27.9-10.9,41.9c-4.7,18.9-12,36.4-22.1,53.1c-10.9,18.1-20.7,36.8-31.2,55.1c-2.5,4.3-5.2,8.5-8.2,12.5
			c-2,2.7-3.1,5.4-1.8,8.8C597.4,658.3,597.7,660.3,596,662z"/>
		<path fill="#FEFEFE" d="M2,361c3,0.4,4.6,2.7,6.1,4.8c3.7,5.3,8.8,9.1,12.9,13.9c2.1,2.4,5.3,2.3,8.3,2.3c8,0,16-0.2,24,0.1
			c8.6,0.2,15.9,3.1,20.3,11c1.7,3,4.2,5,7.5,6.1c9.4,3.2,18.8,6.5,28.1,10c2.1,0.8,2.8-0.1,3.4-1.6c1.3-3.1,2.3-6.2,3.7-9.2
			c1.8-3.9,1.8-8.7,6.7-10.8c1-0.4,1.9-3,1.7-4.4c-1.7-13.9,6.9-25.1,9.3-37.8c1.8-9.1,7.6-14.8,13.3-20.9c1.7-1.8,1.4-3.6,1.5-5.5
			c0.1-4.3,2.1-7.1,6.3-7.7c6.2-1,10.8-5,16.2-7.5c1.6-0.7,2.5-2.2,2.7-4c0.8-5.7,4.8-8.2,9.7-10.1c5-2,10.3-2.5,15.5-3.5
			c1.4-0.3,3-0.3,3.6,1.7c1.2,4,3.8,3.3,6.7,1.9c1.8-0.9,15.5,1.1,16.3,2.7c1.1,2,1.5,4.3,2.2,6.5c1,3.6,2.5,6.9,5.6,9.2
			c0.7,0.5,1.3,1.5,2,1.5c7.9-0.6,7.9,6.5,10.2,11c1.8,3.6,0.6,9.4,3.8,11.5c3.9,2.5,6.9-3.3,11.1-4.2c1.1,4.7,2.3,9.3,3.4,14
			c0.6,2.6,1.6,4.7,5,4.2c3-0.5,4.8,1.4,6.7,3.5c4.9,5.4,9.3,11.1,12.8,17.5c0.7,1.3,1.9,2.7,1.7,4c-0.7,4.2,0.5,6.6,5,7.4
			c2.2,0.4,1.8,2.9,1.5,4.7c-0.2,1.1-1.2,2.3-0.1,3.2c1.3,1.1,2.6,0,3.7-0.6c5.5-3,11.8-4.6,16.9-8.5c11.4-8.7,24.3-6.5,37.2-6.2
			c10.5,0.2,14.8,8.7,20.9,14.3c7.3,6.7,13.9,14.1,20.6,21.5c6.2,6.9,13,13.3,19.5,19.8c7.8,7.7,14.9,15.9,23.3,23
			c10.7,9,19.2,20.3,29.3,30c7.4,7.1,13.4,15.5,21.6,21.8c2.1,1.6,3.8,3.8,5.1,6.1c7,11.8,15.8,22.4,23.9,33.4
			c8.4,11.3,16.9,22.6,25.4,33.7c3,3.9,7,6.4,12.1,7.1c4.4,0.5,5.9,2.4,3.5,6.9c-6.1,11.3-9.2,23.8-14.4,35.4c-1.6,3.7-1,5.6,3.5,5
			c2-0.2,4,0.1,6-0.1c3.6-0.4,6,0.8,6.3,4.5c0.3,3.4,3.5,3.5,5.3,5.3c5.2,5.1,8.4,11.9,14.1,16.6c1.6,1.3,0.1,4.4,0.4,6.6
			c-191.5,0-383,0-574.5,0.1c-3.7,0-4.6-0.8-4.6-4.6C2,558.7,2,459.8,2,361z"/>
		<path fill="#FEFEFE" d="M671,297c-2.6-1.8-5.1-3.7-7.8-5.3c-1.8-1.1-1.9-2.5-0.6-3.5c7.6-5.7,4.6-13.8,4-20.7
			c-0.9-10.7-3.6-21.2-5.6-31.7c-0.2-1.3-0.1-3-1.8-3.1c-1.6-0.1-1.9,1.7-2.2,2.9c-0.9,3.8-3.5,4.1-6.5,3.2
			c-6.9-1.9-13.8-3.7-20-7.4c-0.3-0.2-0.6-0.5-0.9-0.4c-12.4,2.2-22.2-8.1-34.5-7.1c-10.2,0.8-19.5-11.4-17.3-21.5
			c1.5-6.9,1.7-13.9,1.2-20.9c-0.3-3.4,1.2-5.6,3.9-7.4c2-1.4,3.8-3.2,5.5-5c0.7-0.8,1.5-2,0.6-3.1c-0.8-1.1-2.2-1-3.2-0.6
			c-2.6,1-5.9,1.6-7.6,3.5c-4.8,5.4-11.1,5.2-17.3,5.9c-2,0.2-4.2,0.5-6.3-0.7c-3.3-1.9-6.6-3-10.8-2.4c-2.9,0.4-6.4-1.5-9.4-2.8
			c-2.2-0.9-1.2-3.2-1.3-4.9c-0.2-3-0.9-4.4-3.7-1.8c-3.9,3.6-6.9,0.4-10.1-2.2c2.5,0,5.1,0,7.6,0c0.9,0,1.7-0.4,1.7-1.4
			c0-1-0.9-1.5-1.7-1.4c-11.9,1.5-21.3-7.1-32.5-8.3c-2.6-0.3-5-1.1-6-4.4c-0.4-1.5-2.2-3.3-3.7-3.8c-5.7-2.1-9.4-6.7-13.9-10.2
			c-2.3-1.8-4.2-4.4-7.5-4.5c-1.6-0.1-2-1.5-2.4-2.8c-3.6-11-5.6-22.6-6.4-33.9c-0.6-7.8-1.7-14.7-6.5-20.6
			c-5.8-7.1-4.1-14.8-3-22.7c0.2-1.1,0.7-2.2,1.1-3.3c4.4-13.3,4.2-13.1-6.9-21.6c-4.8-3.7-10.1-6.3-15.4-9
			c-0.8-0.4-1.8-1.9-2.5-0.7c-1.9,3.1-2.3,6.9-3,10.4c-0.6,3.1,3.1,2.2,5,4.6c-4.1-0.7-8.1,1.2-9.6-4.2c-0.5-1.7-2.5-1.8-4.2-2.2
			c-1.7-0.4-3.3-1-4.9-1.9c2.9-0.6,5.4,0.4,7.9,1.3c2.4,0.9,3.2-0.1,3.9-2.1c1.8-5.2-0.6-9.3-5.5-11.2c-6.1-2.4-10.6-1.4-14.5,4
			c-1.9,2.6-4.4,4.3-8,1.8c-14.5-10.1-30.7-10.3-47.3-7.3c-10.4,1.9-20.7,4.7-31.1,6.4c-7.9,1.3-13.8,6.3-20.8,9.1
			c-10.2,4-19.9,9.3-30.4,12.3c-9.5,2.8-18.4,8.5-28.9,7.9c-2.3-0.1-5,0.9-7.1,2.1c-6.4,3.8-13.2,3.8-20.3,3.8
			c-10-0.1-19.6,3.4-29.4,4.3c-10.9,1.1-20.7,5.9-31.2,8.2c-3.1,0.7-6.1,1.3-9.2-0.2c-2.3-1.1-4.6-0.2-6.6,1c-6.9,3.8-14,7-21.7,8.8
			c-6.8,1.6-11.2,6.8-16.8,10.1c-3.5,2.1-6.1,2.1-8.7-1c-2.5-3-5.8-4.9-9.2-6.6c-5.5-2.7-10.9-5.7-16.3-8.6
			c-5.6-3-10.7,0.1-15.9,1.2c-3.7,0.8-7.3,2.3-11,3.3c-5.8,1.6-11.7,4.4-17.5-0.8c-0.4,3.3,2.4,4.4,2.9,7.1c-4.5-0.7-8,0.7-9.8,5.1
			C2,54,2.1,30,1.9,6c0-3.3,0.6-4.1,4.1-4.1C73.8,2,141.6,2,209.4,2c152.3,0,304.5,0,456.8-0.1c3.8,0,5,0.5,5,4.7
			C671,103.4,671,200.2,671,297z"/>
		<path fill="#FEFEFE" d="M2,86c4.2-0.1,8,0.7,10.3,4.6c1,1.7,2.6,3.6,1.2,5.5c-1.2,1.6-3.4,1-5.1,0.4c-2.1-0.7-3.7-0.5-4.2,1.9
			c-0.4,2.3,1.1,3.3,3,3.9c0.5,0.1,1,0,1.5,0.1c0.8,0.2,1.5,0.5,2.5,0.8c-10.2,4.8-10.2,4.8-1.9,12.4c3.9,3.6,9.4,3.4,13-0.5
			c0.7-0.8,1.4-0.9,2.1-0.5c5.1,2.7,9.6-0.4,14.2-1.8c0.7,1.6,0.6,3-0.3,4.3c-1,1.5-1.9,3.1-0.4,4.5c1.6,1.5,3.4,1.6,5.6,0.7
			c1.4-0.6,3.4-3.3,4.5-0.8c0.8,1.8-2,3.1-3.7,3.8c-4.3,1.8-8.1,3.9-8.1,9.4c0,1.3-0.5,2.9,0.8,3.7c1.4,1,2.9,0.2,4.2-0.6
			c0.8-0.5,1.7-1.1,2.3-1.8c3.2-3.5,7.3-3.7,11.5-2.6c4.9,1.2,9,4.3,13.3,6.7c1.5,0.8,1.7,2.1,1.4,3.8c-1.1,8-1.9,16.1-3.2,24.1
			c-0.6,3.7,2.2,3.1,3.9,3.8c1.6,0.7,4.1,0.2,4.2,2.6c0.1,2-1.9,3-3.6,3.6c-4.3,1.7-7,4.9-8.8,9c-1.3,3-3.4,4.6-6.7,5.1
			c-4.1,0.6-6.4,3.1-6.3,7.5c0.1,4.7-1.9,9.4,0.8,14.1c0.7,1.2,0.1,2.6-1.8,3.4c-4.2,1.8-6.7,4.8-8.4,9.5c-1.3,3.4-1.7,6.4-2,9.8
			c-0.3,2.9-1.3,5.6-5.3,6.3c-1.8,0.3-6.6,0.8-3.3,5.3c0.5,0.7-0.3,1.1-0.8,1.5c-4.8,3.3-1.4,6.6,1,8.4c3.4,2.7,4.1,6.7,6.4,9.9
			c1.8,2.5-1.4,5.9-2.8,8.6c-3.1,6-6.2,12.3-13.8,13.9c-1,0.2-1.5,1.1-1.9,2.1C12.7,303.2,7.2,313.5,2,324C2,244.7,2,165.3,2,86z"/>
		<path fill="#FEFEFE" d="M596,662c-4.3-8.4,0.2-14.4,4.5-21.3c8.6-13.7,17-27.6,24.4-42.1c6.5-12.7,13.9-24.9,21.2-37.1
			c4.6-7.7,6.7-16.2,8.9-24.7c3.9-14.4,8.1-28.7,11.3-43.2c0.7-3.3,2.3-6.2,4.7-8.6c0,57.7,0,115.3,0.1,173c0,3.4-0.7,4.1-4.1,4.1
			C643.3,661.9,619.7,662,596,662z"/>
		<path fill="#FEFEFE" d="M671,481c-4-5.3-2.9-11.8-3.9-17.7c-3.1-19.1-5.9-38.3-8.2-57.5c-0.8-6.8,0.3-13.8,0.5-20.7
			c0-0.5,0.3-1,0.4-1.4c1.8-11.3,0.7-14.4-9-19.6c-5.4-2.8-4.3-7.8-5.5-12c-1-3.5-1.6-7.3,2.1-10.7c2.5-2.2,3.4-6,2.6-9.7
			c-2.1-10.1,2.8-18.3,8.4-25.7c2.5-3.3,8.1-3.1,12.5-4.1C671,361.7,671,421.3,671,481z"/>
		<path fill="#FEFEFE" d="M14.8,74.5c5.1,0,6.2,3.9,9.1,5.4c3.1,1.5,5.9,3.6,9.5,4.2c2.2,0.3,3.3,2,3.1,3.8c-0.1,1.6-2,2-3.5,2
			c-1.8,0-3.8,0.6-5.2-0.9C23.5,84.5,19.5,79.8,14.8,74.5z"/>
		<path fill="#FEFEFE" d="M15.2,105.6c3.6-1,7.2-1.4,10.5,0.8C21.8,111,18.8,105.5,15.2,105.6z"/>
		<path fill="#FEFEFE" d="M495.2,152.5c2.7,0.3,5.4,0.4,8,2.1C499.5,157,497.7,153.6,495.2,152.5z"/>
		<path fill="#FEFEFE" d="M484.6,147.5c-2.1,0.5-3.6,0.8-3.9-1.4c-0.1-0.5,0.6-1.6,0.9-1.6C483.6,144.6,483.4,146.4,484.6,147.5z"/>
	</g>
</g>
</svg>
