<?xml version="1.0" encoding="utf-8"?>
<!-- Generator: Adobe Illustrator 16.0.0, SVG Export Plug-In . SVG Version: 6.00 Build 0)  -->
<!DOCTYPE svg PUBLIC "-//W3C//DTD SVG 1.1//EN" "http://www.w3.org/Graphics/SVG/1.1/DTD/svg11.dtd">
<svg version="1.1" id="Layer_1" xmlns="http://www.w3.org/2000/svg" xmlns:xlink="http://www.w3.org/1999/xlink" x="0px" y="0px"
	 width="464px" height="71px" viewBox="0 0 464 71" enable-background="new 0 0 464 71" xml:space="preserve">
<g>
	<path fill="#930000" d="M20.851,17.926l-5.029,4.631L1.93,7.472l5.029-4.631L20.851,17.926z M26.078,8.465L50.425,4.63
		l-5.823,23.949l-6.946-7.542L15.027,41.875c-3.353,3.088-3.485,6.307-0.397,9.66l6.946,7.542c3.087,3.353,6.307,3.485,9.659,0.397
		l5.028-4.631c3.352-3.087,3.484-6.307,0.397-9.659l-6.946-7.542l5.029-4.631l6.946,7.542c6.174,6.704,5.909,13.144-0.795,19.318
		l-5.028,4.631c-6.705,6.175-13.144,5.909-19.318-0.795l-6.946-7.542c-6.175-6.705-5.91-13.145,0.795-19.318l22.628-20.84
		L26.078,8.465z"/>
</g>
<g>
	<path fill="#09103A" d="M73.255,25.965v-4.182h9.928c1.518,0,2.703-0.431,3.553-1.292c0.85-0.861,1.275-1.995,1.275-3.4
		c0-1.428-0.425-2.561-1.275-3.4c-0.85-0.838-2.035-1.258-3.553-1.258h-13.09v20.4h-4.284V8.115h17.374
		c1.428,0,2.703,0.209,3.825,0.629c1.122,0.419,2.068,1.009,2.839,1.768c0.77,0.759,1.36,1.683,1.768,2.771
		c0.408,1.088,0.612,2.312,0.612,3.672c0,1.337-0.204,2.556-0.612,3.655c-0.408,1.1-0.998,2.046-1.768,2.839
		c-0.771,0.793-1.717,1.411-2.839,1.853c-1.122,0.442-2.397,0.663-3.825,0.663H73.255z"/>
	<path fill="#09103A" d="M117.386,8.115h4.217v13.804c0,1.904-0.25,3.565-0.748,4.981c-0.5,1.417-1.281,2.59-2.346,3.519
		c-1.066,0.93-2.443,1.621-4.131,2.074c-1.69,0.453-3.735,0.68-6.138,0.68c-2.38,0-4.415-0.227-6.103-0.68
		c-1.689-0.453-3.066-1.145-4.131-2.074c-1.065-0.929-1.848-2.102-2.346-3.519c-0.499-1.416-0.748-3.077-0.748-4.981V8.115h4.454
		v13.804c0,1.247,0.153,2.312,0.459,3.196c0.306,0.884,0.804,1.609,1.496,2.176c0.691,0.567,1.615,0.98,2.771,1.241
		c1.156,0.261,2.584,0.391,4.284,0.391c1.7,0,3.128-0.13,4.284-0.391c1.156-0.261,2.079-0.674,2.771-1.241
		c0.691-0.566,1.189-1.292,1.496-2.176c0.307-0.884,0.459-1.949,0.459-3.196V8.115z"/>
	<path fill="#09103A" d="M125.479,32.833V8.115h18.088c1.201,0,2.295,0.136,3.28,0.408c0.986,0.272,1.831,0.675,2.533,1.207
		c0.702,0.533,1.246,1.202,1.632,2.006c0.386,0.805,0.578,1.729,0.578,2.771c0,0.794-0.091,1.485-0.271,2.074
		c-0.182,0.59-0.431,1.094-0.748,1.513c-0.318,0.419-0.687,0.771-1.105,1.054c-0.419,0.284-0.855,0.493-1.309,0.629
		c1.133,0.363,2.063,1.02,2.788,1.972c0.725,0.952,1.088,2.154,1.088,3.604c0,1.134-0.188,2.159-0.562,3.077
		s-0.906,1.706-1.598,2.363c-0.691,0.658-1.53,1.162-2.516,1.513c-0.986,0.352-2.08,0.527-3.281,0.527H125.479z M132.924,22.089
		v-3.638h10.677c1.224,0,2.13-0.227,2.72-0.68c0.589-0.453,0.884-1.224,0.884-2.312c0-0.657-0.125-1.184-0.374-1.581
		c-0.25-0.396-0.606-0.702-1.071-0.918c-0.465-0.215-1.02-0.357-1.666-0.425c-0.646-0.068-1.365-0.102-2.158-0.102h-12.139v16.116
		h12.513c0.77,0,1.483-0.056,2.142-0.17c0.657-0.113,1.224-0.3,1.7-0.561c0.476-0.26,0.844-0.595,1.104-1.003
		c0.261-0.408,0.392-0.918,0.392-1.53c0-1.02-0.318-1.808-0.952-2.363c-0.635-0.555-1.564-0.833-2.788-0.833H132.924z"/>
	<path fill="#09103A" d="M155.805,32.833V8.115h4.318v20.4h16.626v4.318H155.805z"/>
	<path fill="#09103A" d="M180.082,32.833V8.115h4.318v24.718H180.082z"/>
	<path fill="#09103A" d="M188.921,32.833V8.115h22.066v4.318h-17.782v16.082h17.816v4.318H188.921z M196.368,22.089v-3.638h13.702
		v3.638H196.368z"/>
	<path fill="#09103A" d="M214.727,32.833V8.115h4.318v24.718H214.727z M235.093,32.833l-13.838-10.88
		c-0.386-0.294-0.629-0.583-0.73-0.867c-0.103-0.283-0.153-0.595-0.153-0.935c0-0.385,0.067-0.725,0.204-1.02
		c0.136-0.294,0.43-0.612,0.884-0.952l13.09-10.064h6.63l-16.184,12.07l16.693,12.648H235.093z"/>
	<path fill="#09103A" d="M252.807,8.115h5.27l11.221,19.04l11.186-19.04h4.965l-14.246,23.664c-0.25,0.431-0.545,0.771-0.885,1.02
		c-0.34,0.25-0.736,0.374-1.189,0.374c-0.477,0-0.885-0.125-1.225-0.374c-0.34-0.249-0.635-0.589-0.883-1.02L252.807,8.115z"/>
	<path fill="#09103A" d="M288.098,32.833V8.115h22.066v4.318h-17.781v16.082h17.816v4.318H288.098z M295.545,22.089v-3.638h13.701
		v3.638H295.545z"/>
	<path fill="#09103A" d="M336.854,32.833l-6.256-6.868h-9.248v-3.808h10.303c1.564,0,2.742-0.425,3.535-1.275
		c0.793-0.85,1.191-2.079,1.191-3.689c0-1.609-0.414-2.805-1.242-3.587c-0.828-0.782-1.988-1.173-3.484-1.173h-13.465v20.4h-4.283
		V8.115h17.748c1.404,0,2.662,0.209,3.773,0.629s2.051,1.02,2.822,1.802c0.77,0.782,1.359,1.729,1.768,2.839
		c0.408,1.111,0.613,2.358,0.613,3.74c0,2.063-0.449,3.791-1.344,5.185c-0.896,1.394-2.148,2.397-3.758,3.009l7.447,7.514H336.854z"
		/>
	<path fill="#09103A" d="M340.662,8.115h5.27l11.221,19.04l11.186-19.04h4.965l-14.246,23.664c-0.25,0.431-0.545,0.771-0.885,1.02
		c-0.34,0.25-0.736,0.374-1.189,0.374c-0.477,0-0.885-0.125-1.225-0.374c-0.34-0.249-0.635-0.589-0.883-1.02L340.662,8.115z"/>
	<path fill="#09103A" d="M383.945,32.833c-1.723,0-3.314-0.323-4.777-0.969c-1.461-0.646-2.732-1.53-3.809-2.652
		s-1.914-2.453-2.516-3.995c-0.6-1.541-0.9-3.207-0.9-4.998c0-1.813,0.301-3.468,0.9-4.964c0.602-1.496,1.439-2.771,2.516-3.825
		c1.076-1.054,2.348-1.87,3.809-2.448c1.463-0.578,3.055-0.867,4.777-0.867h6.018c1.791,0,3.428,0.294,4.914,0.884
		c1.484,0.59,2.758,1.417,3.824,2.482c1.064,1.066,1.893,2.341,2.482,3.825c0.588,1.485,0.883,3.123,0.883,4.913
		s-0.301,3.457-0.9,4.998c-0.602,1.542-1.439,2.873-2.516,3.995s-2.352,2.006-3.826,2.652c-1.473,0.646-3.094,0.969-4.861,0.969
		H383.945z M389.963,28.515c1.133,0,2.176-0.204,3.129-0.612c0.951-0.408,1.773-0.969,2.465-1.683
		c0.691-0.714,1.229-1.569,1.615-2.567c0.385-0.997,0.578-2.074,0.578-3.23c0-1.156-0.193-2.227-0.578-3.213
		c-0.387-0.986-0.924-1.83-1.615-2.533s-1.514-1.252-2.465-1.649c-0.953-0.396-1.996-0.595-3.129-0.595h-6.018
		c-1.111,0-2.137,0.199-3.078,0.595c-0.939,0.397-1.75,0.947-2.43,1.649s-1.213,1.542-1.598,2.516
		c-0.387,0.975-0.578,2.052-0.578,3.23c0,1.156,0.191,2.233,0.578,3.23c0.385,0.998,0.918,1.853,1.598,2.567
		c0.68,0.714,1.49,1.275,2.43,1.683c0.941,0.408,1.967,0.612,3.078,0.612H389.963z"/>
	<path fill="#09103A" d="M405.568,32.833V8.115h22.066v4.318h-17.783v16.082h17.816v4.318H405.568z M413.014,22.089v-3.638h13.703
		v3.638H413.014z"/>
	<path fill="#09103A" d="M454.324,32.833l-6.256-6.868h-9.248v-3.808h10.301c1.564,0,2.742-0.425,3.537-1.275
		c0.793-0.85,1.189-2.079,1.189-3.689c0-1.609-0.414-2.805-1.24-3.587c-0.828-0.782-1.99-1.173-3.486-1.173h-13.463v20.4h-4.285
		V8.115h17.748c1.406,0,2.664,0.209,3.775,0.629c1.109,0.419,2.051,1.02,2.822,1.802c0.77,0.782,1.359,1.729,1.768,2.839
		c0.408,1.111,0.611,2.358,0.611,3.74c0,2.063-0.447,3.791-1.342,5.185c-0.896,1.394-2.148,2.397-3.758,3.009l7.445,7.514H454.324z"
		/>
</g>
<line fill="#930000" stroke="#930000" stroke-width="2" stroke-miterlimit="10" x1="65" y1="40" x2="459" y2="40"/>
<g>
	<path fill="#1B3E5E" d="M68.468,53.828V65h-2.541V51.14c0-0.49,0.123-0.878,0.368-1.166c0.245-0.287,0.578-0.431,0.998-0.431
		c0.196,0,0.385,0.042,0.567,0.126s0.371,0.224,0.567,0.42l10.773,10.689V49.607h2.541v13.986c0,0.504-0.123,0.896-0.368,1.176
		c-0.245,0.28-0.564,0.42-0.956,0.42c-0.434,0-0.84-0.189-1.218-0.567L68.468,53.828z"/>
	<path fill="#1B3E5E" d="M91.294,65c-1.064,0-2.047-0.2-2.95-0.599c-0.903-0.399-1.688-0.945-2.352-1.638
		c-0.666-0.693-1.184-1.516-1.554-2.468c-0.371-0.952-0.557-1.981-0.557-3.087c0-1.12,0.186-2.142,0.557-3.066
		c0.371-0.924,0.889-1.711,1.554-2.363c0.665-0.651,1.449-1.155,2.352-1.512c0.903-0.357,1.886-0.536,2.95-0.536h3.717
		c1.105,0,2.117,0.182,3.034,0.546c0.917,0.364,1.705,0.875,2.363,1.533c0.658,0.658,1.168,1.446,1.533,2.362
		c0.364,0.917,0.546,1.929,0.546,3.035s-0.186,2.135-0.557,3.087c-0.371,0.952-0.889,1.774-1.554,2.468
		c-0.665,0.693-1.453,1.239-2.362,1.638C97.104,64.8,96.104,65,95.012,65H91.294z M95.012,62.333c0.7,0,1.344-0.126,1.932-0.378
		c0.588-0.252,1.095-0.599,1.522-1.04s0.759-0.969,0.998-1.585c0.238-0.616,0.357-1.281,0.357-1.995s-0.119-1.375-0.357-1.984
		c-0.238-0.609-0.57-1.13-0.998-1.564s-0.934-0.773-1.522-1.019c-0.588-0.245-1.232-0.368-1.932-0.368h-3.717
		c-0.686,0-1.32,0.123-1.9,0.368c-0.581,0.245-1.082,0.584-1.501,1.019s-0.749,0.952-0.987,1.554
		c-0.238,0.602-0.357,1.268-0.357,1.995c0,0.714,0.119,1.379,0.357,1.995c0.238,0.616,0.567,1.145,0.987,1.585
		s0.92,0.788,1.501,1.04c0.581,0.252,1.214,0.378,1.9,0.378H95.012z"/>
	<path fill="#1B3E5E" d="M111.623,65c-1.064,0-2.048-0.2-2.95-0.599c-0.903-0.399-1.688-0.945-2.353-1.638
		c-0.665-0.693-1.183-1.516-1.554-2.468c-0.371-0.952-0.557-1.981-0.557-3.087c0-1.12,0.186-2.142,0.557-3.066
		s0.889-1.711,1.554-2.363c0.665-0.651,1.449-1.155,2.353-1.512c0.902-0.357,1.886-0.536,2.95-0.536h3.717
		c1.106,0,2.117,0.182,3.035,0.546c0.916,0.364,1.704,0.875,2.362,1.533c0.657,0.658,1.169,1.446,1.533,2.362
		c0.363,0.917,0.546,1.929,0.546,3.035s-0.186,2.135-0.557,3.087c-0.371,0.952-0.89,1.774-1.554,2.468
		c-0.666,0.693-1.453,1.239-2.363,1.638S116.431,65,115.339,65H111.623z M115.339,62.333c0.7,0,1.345-0.126,1.933-0.378
		s1.095-0.599,1.522-1.04c0.427-0.441,0.759-0.969,0.997-1.585s0.357-1.281,0.357-1.995s-0.119-1.375-0.357-1.984
		s-0.57-1.13-0.997-1.564c-0.428-0.434-0.935-0.773-1.522-1.019c-0.588-0.245-1.232-0.368-1.933-0.368h-3.717
		c-0.686,0-1.319,0.123-1.9,0.368c-0.581,0.245-1.081,0.584-1.502,1.019c-0.42,0.434-0.749,0.952-0.986,1.554
		c-0.238,0.602-0.357,1.268-0.357,1.995c0,0.714,0.119,1.379,0.357,1.995c0.237,0.616,0.566,1.145,0.986,1.585
		c0.421,0.441,0.921,0.788,1.502,1.04s1.215,0.378,1.9,0.378H115.339z"/>
	<path fill="#1B3E5E" d="M139.153,65l-3.864-4.242h-5.712v-2.352h6.363c0.966,0,1.693-0.262,2.184-0.787
		c0.49-0.525,0.735-1.285,0.735-2.279c0-0.994-0.256-1.732-0.767-2.215s-1.229-0.725-2.152-0.725h-8.316V65h-2.646V49.733h10.962
		c0.868,0,1.645,0.13,2.331,0.389c0.686,0.259,1.267,0.63,1.743,1.113c0.476,0.483,0.84,1.068,1.092,1.753
		c0.252,0.687,0.378,1.457,0.378,2.31c0,1.274-0.276,2.342-0.83,3.203c-0.553,0.861-1.326,1.48-2.32,1.858l4.6,4.641H139.153z"/>
	<path fill="#1B3E5E" d="M144.319,65V49.733h8.841c1.078,0,2.071,0.182,2.982,0.546c0.909,0.364,1.693,0.875,2.352,1.533
		c0.658,0.658,1.172,1.446,1.543,2.362c0.371,0.917,0.557,1.929,0.557,3.035s-0.186,2.135-0.557,3.087
		c-0.371,0.952-0.885,1.774-1.543,2.468c-0.658,0.693-1.442,1.239-2.352,1.638C155.231,64.8,154.238,65,153.16,65H144.319z
		 M153.16,62.333c0.686,0,1.319-0.126,1.9-0.378s1.085-0.599,1.512-1.04s0.76-0.969,0.998-1.585
		c0.237-0.616,0.356-1.281,0.356-1.995s-0.119-1.375-0.356-1.984c-0.238-0.609-0.571-1.13-0.998-1.564s-0.931-0.773-1.512-1.019
		c-0.581-0.245-1.215-0.368-1.9-0.368h-6.195v9.933H153.16z"/>
	<path fill="#1B3E5E" d="M175.923,65c-1.064,0-2.048-0.2-2.95-0.599c-0.903-0.399-1.688-0.945-2.353-1.638
		c-0.665-0.693-1.183-1.516-1.554-2.468c-0.371-0.952-0.557-1.981-0.557-3.087c0-1.12,0.186-2.142,0.557-3.066
		s0.889-1.711,1.554-2.363c0.665-0.651,1.449-1.155,2.353-1.512c0.902-0.357,1.886-0.536,2.95-0.536h8.274V52.4h-8.274
		c-0.686,0-1.319,0.123-1.9,0.368c-0.581,0.245-1.081,0.584-1.502,1.019c-0.42,0.434-0.749,0.952-0.986,1.554
		c-0.238,0.602-0.357,1.268-0.357,1.995c0,0.714,0.119,1.379,0.357,1.995c0.237,0.616,0.566,1.145,0.986,1.585
		c0.421,0.441,0.921,0.788,1.502,1.04s1.215,0.378,1.9,0.378h6.531v-3.969h-6.888v-2.247h9.575V65H175.923z"/>
	<path fill="#1B3E5E" d="M201.775,65l-3.864-4.242h-5.712v-2.352h6.363c0.966,0,1.693-0.262,2.184-0.787
		c0.49-0.525,0.735-1.285,0.735-2.279c0-0.994-0.256-1.732-0.767-2.215s-1.229-0.725-2.152-0.725h-8.316V65H187.6V49.733h10.962
		c0.868,0,1.645,0.13,2.331,0.389c0.686,0.259,1.267,0.63,1.743,1.113c0.476,0.483,0.84,1.068,1.092,1.753
		c0.252,0.687,0.378,1.457,0.378,2.31c0,1.274-0.276,2.342-0.83,3.203c-0.553,0.861-1.326,1.48-2.32,1.858l4.6,4.641H201.775z"/>
	<path fill="#1B3E5E" d="M213.555,65c-1.064,0-2.048-0.2-2.95-0.599c-0.903-0.399-1.688-0.945-2.353-1.638
		c-0.665-0.693-1.183-1.516-1.554-2.468c-0.371-0.952-0.557-1.981-0.557-3.087c0-1.12,0.186-2.142,0.557-3.066
		s0.889-1.711,1.554-2.363c0.665-0.651,1.449-1.155,2.353-1.512c0.902-0.357,1.886-0.536,2.95-0.536h3.717
		c1.106,0,2.117,0.182,3.035,0.546c0.916,0.364,1.704,0.875,2.362,1.533c0.657,0.658,1.169,1.446,1.533,2.362
		c0.363,0.917,0.546,1.929,0.546,3.035s-0.186,2.135-0.557,3.087c-0.371,0.952-0.89,1.774-1.554,2.468
		c-0.666,0.693-1.453,1.239-2.363,1.638S218.364,65,217.272,65H213.555z M217.272,62.333c0.7,0,1.345-0.126,1.933-0.378
		s1.095-0.599,1.522-1.04c0.427-0.441,0.759-0.969,0.997-1.585s0.357-1.281,0.357-1.995s-0.119-1.375-0.357-1.984
		s-0.57-1.13-0.997-1.564c-0.428-0.434-0.935-0.773-1.522-1.019c-0.588-0.245-1.232-0.368-1.933-0.368h-3.717
		c-0.686,0-1.319,0.123-1.9,0.368c-0.581,0.245-1.081,0.584-1.502,1.019c-0.42,0.434-0.749,0.952-0.986,1.554
		c-0.238,0.602-0.357,1.268-0.357,1.995c0,0.714,0.119,1.379,0.357,1.995c0.237,0.616,0.566,1.145,0.986,1.585
		c0.421,0.441,0.921,0.788,1.502,1.04s1.215,0.378,1.9,0.378H217.272z"/>
	<path fill="#1B3E5E" d="M229.389,53.828V65h-2.541V51.14c0-0.49,0.123-0.878,0.368-1.166c0.244-0.287,0.577-0.431,0.997-0.431
		c0.196,0,0.385,0.042,0.567,0.126c0.182,0.084,0.37,0.224,0.566,0.42l10.773,10.689V49.607h2.541v13.986
		c0,0.504-0.123,0.896-0.368,1.176s-0.563,0.42-0.955,0.42c-0.435,0-0.84-0.189-1.218-0.567L229.389,53.828z"/>
	<path fill="#1B3E5E" d="M245.391,65V49.733h2.666V65H245.391z"/>
	<path fill="#1B3E5E" d="M253.328,53.828V65h-2.541V51.14c0-0.49,0.123-0.878,0.369-1.166c0.244-0.287,0.576-0.431,0.996-0.431
		c0.197,0,0.385,0.042,0.568,0.126c0.182,0.084,0.369,0.224,0.566,0.42l10.773,10.689V49.607h2.541v13.986
		c0,0.504-0.123,0.896-0.369,1.176c-0.244,0.28-0.563,0.42-0.955,0.42c-0.434,0-0.84-0.189-1.217-0.567L253.328,53.828z"/>
	<path fill="#1B3E5E" d="M276.154,65c-1.064,0-2.047-0.2-2.949-0.599c-0.904-0.399-1.688-0.945-2.354-1.638
		c-0.664-0.693-1.182-1.516-1.553-2.468c-0.371-0.952-0.557-1.981-0.557-3.087c0-1.12,0.186-2.142,0.557-3.066
		s0.889-1.711,1.553-2.363c0.666-0.651,1.449-1.155,2.354-1.512c0.902-0.357,1.885-0.536,2.949-0.536h8.275V52.4h-8.275
		c-0.686,0-1.318,0.123-1.9,0.368c-0.58,0.245-1.08,0.584-1.502,1.019c-0.42,0.434-0.748,0.952-0.986,1.554
		c-0.238,0.602-0.357,1.268-0.357,1.995c0,0.714,0.119,1.379,0.357,1.995s0.566,1.145,0.986,1.585
		c0.422,0.441,0.922,0.788,1.502,1.04c0.582,0.252,1.215,0.378,1.9,0.378h6.531v-3.969h-6.887v-2.247h9.574V65H276.154z"/>
	<path fill="#1B3E5E" d="M287.832,65V49.733h13.629V52.4h-10.984v9.933h11.004V65H287.832z M292.43,58.364v-2.247h8.463v2.247
		H292.43z"/>
	<path fill="#1B3E5E" d="M306.248,53.828V65h-2.541V51.14c0-0.49,0.123-0.878,0.367-1.166s0.578-0.431,0.998-0.431
		c0.195,0,0.385,0.042,0.566,0.126s0.371,0.224,0.566,0.42l10.773,10.689V49.607h2.541v13.986c0,0.504-0.123,0.896-0.367,1.176
		c-0.246,0.28-0.564,0.42-0.955,0.42c-0.436,0-0.84-0.189-1.219-0.567L306.248,53.828z"/>
</g>
</svg>
